# xmcd CD database file
#
# Track frame offsets:
#	150
#	24472
#	52670
#	76582
#	112030
#	150202
#	178670
#	194365
#	217267
#	238595
#
# Disc length: 3569 seconds
#
# Revision: 1
# Processed by: cddbd v1.5.1PL0 Copyright (c) Steve Scherf et al.
# Submitted via: CDex 1.51
#
DISCID=750def0a
DTITLE=Chamber Ensemble Hakkohzan - Hakkohzan
DYEAR=2002
DGENRE=Jazz
TTITLE0=Hakkohzan
TTITLE1=Samarkand
TTITLE2=Calypso Hakkohzan
TTITLE3=Fest. of Lights
TTITLE4=Forever
TTITLE5=Purple Field
TTITLE6=Fuga de la Liberation
TTITLE7=Tri-Poison
TTITLE8=Tone Whole
TTITLE9=Afro Blue
EXTD=YEAR: 2002
EXTT0=
EXTT1=
EXTT2=
EXTT3=
EXTT4=
EXTT5=
EXTT6=
EXTT7=
EXTT8=
EXTT9=
PLAYORDER=
